# This file uses centimeters as units for non-parametric coordinates.

mtllib bed.mtl
g default
v -0.371289 -0.061002 0.174907
v -0.185645 -0.061002 0.174907
v 0.000000 -0.061002 0.174907
v 0.185645 -0.061002 0.174907
v 0.371289 -0.061002 0.174907
v -0.371289 0.061002 0.174907
v -0.185645 0.061002 0.174907
v 0.000000 0.061002 0.174907
v 0.185645 0.061002 0.174907
v 0.371289 0.061002 0.174907
v -0.371289 0.061002 0.104944
v -0.185645 0.061002 0.104944
v 0.000000 0.061002 0.104944
v 0.185645 0.061002 0.104944
v 0.371289 0.061002 0.104944
v -0.371289 0.061002 0.034981
v -0.185645 0.061002 0.034981
v 0.000000 0.061002 0.034981
v 0.185645 0.061002 0.034981
v 0.371289 0.061002 0.034981
v -0.371289 0.061002 -0.034981
v -0.185645 0.061002 -0.034981
v 0.000000 0.061002 -0.034981
v 0.185645 0.061002 -0.034981
v 0.371289 0.061002 -0.034981
v -0.371289 0.061002 -0.104944
v -0.185645 0.061002 -0.104944
v 0.000000 0.061002 -0.104944
v 0.185645 0.061002 -0.104944
v 0.371289 0.061002 -0.104944
v -0.371289 0.061002 -0.174907
v -0.185645 0.061002 -0.174907
v 0.000000 0.061002 -0.174907
v 0.185645 0.061002 -0.174907
v 0.371289 0.061002 -0.174907
v -0.371289 -0.061002 -0.174907
v -0.185645 -0.061002 -0.174907
v 0.000000 -0.061002 -0.174907
v 0.185645 -0.061002 -0.174907
v 0.371289 -0.061002 -0.174907
v -0.371289 -0.061002 -0.104944
v -0.185645 -0.061002 -0.104944
v 0.000000 -0.061002 -0.104944
v 0.185645 -0.061002 -0.104944
v 0.371289 -0.061002 -0.104944
v -0.371289 -0.061002 -0.034981
v -0.185645 -0.061002 -0.034981
v 0.000000 -0.061002 -0.034981
v 0.185645 -0.061002 -0.034981
v 0.371289 -0.061002 -0.034981
v -0.371289 -0.061002 0.034981
v -0.185645 -0.061002 0.034981
v 0.000000 -0.061002 0.034981
v 0.185645 -0.061002 0.034981
v 0.371289 -0.061002 0.034981
v -0.371289 -0.061002 0.104944
v -0.185645 -0.061002 0.104944
v 0.000000 -0.061002 0.104944
v 0.185645 -0.061002 0.104944
v 0.371289 -0.061002 0.104944
v -0.371289 0.112054 0.104944
v -0.185645 0.112054 0.104944
v -0.185645 0.112054 0.034981
v -0.371289 0.112054 0.034981
v -0.185645 0.112054 -0.034981
v -0.371289 0.112054 -0.034981
v -0.185645 0.112054 -0.104944
v -0.371289 0.112054 -0.104944
v -0.371289 0.061002 0.153888
v -0.185645 0.061002 0.153888
v -0.185645 0.112054 0.153888
v -0.371289 0.112054 0.153888
v -0.371289 0.061002 -0.153888
v -0.185645 0.061002 -0.153888
v -0.371289 0.112054 -0.153888
v -0.185645 0.112054 -0.153888
vt 0.375000 0.000000
vt 0.437500 0.000000
vt 0.500000 0.000000
vt 0.562500 0.000000
vt 0.625000 0.000000
vt 0.375000 0.250000
vt 0.437500 0.250000
vt 0.500000 0.250000
vt 0.562500 0.250000
vt 0.625000 0.250000
vt 0.375000 0.300000
vt 0.437500 0.300000
vt 0.500000 0.300000
vt 0.562500 0.300000
vt 0.625000 0.300000
vt 0.375000 0.350000
vt 0.437500 0.350000
vt 0.500000 0.350000
vt 0.562500 0.350000
vt 0.625000 0.350000
vt 0.375000 0.400000
vt 0.437500 0.400000
vt 0.500000 0.400000
vt 0.562500 0.400000
vt 0.625000 0.400000
vt 0.375000 0.450000
vt 0.437500 0.450000
vt 0.500000 0.450000
vt 0.562500 0.450000
vt 0.625000 0.450000
vt 0.375000 0.500000
vt 0.437500 0.500000
vt 0.500000 0.500000
vt 0.562500 0.500000
vt 0.625000 0.500000
vt 0.375000 0.750000
vt 0.437500 0.750000
vt 0.500000 0.750000
vt 0.562500 0.750000
vt 0.625000 0.750000
vt 0.375000 0.800000
vt 0.437500 0.800000
vt 0.500000 0.800000
vt 0.562500 0.800000
vt 0.625000 0.800000
vt 0.375000 0.850000
vt 0.437500 0.850000
vt 0.500000 0.850000
vt 0.562500 0.850000
vt 0.625000 0.850000
vt 0.375000 0.900000
vt 0.437500 0.900000
vt 0.500000 0.900000
vt 0.562500 0.900000
vt 0.625000 0.900000
vt 0.375000 0.950000
vt 0.437500 0.950000
vt 0.500000 0.950000
vt 0.562500 0.950000
vt 0.625000 0.950000
vt 0.375000 1.000000
vt 0.437500 1.000000
vt 0.500000 1.000000
vt 0.562500 1.000000
vt 0.625000 1.000000
vt 0.875000 0.000000
vt 0.825000 0.000000
vt 0.775000 0.000000
vt 0.725000 0.000000
vt 0.675000 0.000000
vt 0.875000 0.250000
vt 0.825000 0.250000
vt 0.775000 0.250000
vt 0.725000 0.250000
vt 0.675000 0.250000
vt 0.125000 0.000000
vt 0.175000 0.000000
vt 0.225000 0.000000
vt 0.275000 0.000000
vt 0.325000 0.000000
vt 0.125000 0.250000
vt 0.175000 0.250000
vt 0.225000 0.250000
vt 0.275000 0.250000
vt 0.325000 0.250000
vt 0.375000 0.300000
vt 0.437500 0.300000
vt 0.437500 0.350000
vt 0.375000 0.350000
vt 0.437500 0.400000
vt 0.375000 0.400000
vt 0.437500 0.450000
vt 0.375000 0.450000
vt 0.375000 0.300000
vt 0.437500 0.300000
vt 0.437500 0.300000
vt 0.375000 0.300000
vt 0.437500 0.450000
vt 0.375000 0.450000
vt 0.375000 0.450000
vt 0.437500 0.450000
vn 0.000000 0.000000 1.000000
vn 0.000000 0.000000 1.000000
vn 0.000000 0.000000 1.000000
vn 0.000000 0.000000 1.000000
vn 0.000000 0.000000 1.000000
vn 0.000000 0.000000 1.000000
vn 0.000000 0.000000 1.000000
vn 0.000000 0.000000 1.000000
vn 0.000000 0.000000 1.000000
vn 0.000000 0.000000 1.000000
vn 0.000000 1.000000 0.000000
vn 0.000000 1.000000 0.000000
vn 0.000000 1.000000 0.000000
vn 0.000000 1.000000 0.000000
vn 0.000000 1.000000 0.000000
vn 0.000000 1.000000 0.000000
vn 0.000000 1.000000 0.000000
vn 0.000000 1.000000 0.000000
vn 0.000000 1.000000 0.000000
vn 0.000000 1.000000 0.000000
vn 0.000000 1.000000 0.000000
vn 0.000000 1.000000 0.000000
vn 0.000000 1.000000 0.000000
vn 0.000000 1.000000 0.000000
vn 0.000000 1.000000 0.000000
vn 0.000000 1.000000 0.000000
vn 0.000000 1.000000 0.000000
vn 0.000000 1.000000 0.000000
vn 0.000000 1.000000 0.000000
vn 0.000000 1.000000 0.000000
vn 0.000000 1.000000 0.000000
vn 0.000000 1.000000 0.000000
vn 0.000000 1.000000 0.000000
vn 0.000000 1.000000 0.000000
vn 0.000000 1.000000 0.000000
vn 0.000000 1.000000 0.000000
vn 0.000000 1.000000 -0.000000
vn 0.000000 1.000000 0.000000
vn 0.000000 1.000000 -0.000000
vn 0.000000 1.000000 0.000000
vn 0.000000 1.000000 0.000000
vn 0.000000 1.000000 0.000000
vn 0.000000 1.000000 0.000000
vn 0.000000 1.000000 0.000000
vn 0.000000 1.000000 0.000000
vn 0.000000 1.000000 0.000000
vn 0.000000 0.000000 -1.000000
vn 0.000000 0.000000 -1.000000
vn 0.000000 0.000000 -1.000000
vn 0.000000 0.000000 -1.000000
vn 0.000000 0.000000 -1.000000
vn 0.000000 0.000000 -1.000000
vn 0.000000 0.000000 -1.000000
vn 0.000000 0.000000 -1.000000
vn 0.000000 0.000000 -1.000000
vn 0.000000 0.000000 -1.000000
vn 0.000000 -1.000000 0.000000
vn 0.000000 -1.000000 0.000000
vn 0.000000 -1.000000 0.000000
vn 0.000000 -1.000000 0.000000
vn 0.000000 -1.000000 0.000000
vn 0.000000 -1.000000 0.000000
vn 0.000000 -1.000000 0.000000
vn 0.000000 -1.000000 0.000000
vn 0.000000 -1.000000 0.000000
vn 0.000000 -1.000000 0.000000
vn 0.000000 -1.000000 0.000000
vn 0.000000 -1.000000 0.000000
vn 0.000000 -1.000000 0.000000
vn 0.000000 -1.000000 0.000000
vn 0.000000 -1.000000 0.000000
vn 0.000000 -1.000000 0.000000
vn 0.000000 -1.000000 0.000000
vn 0.000000 -1.000000 0.000000
vn 0.000000 -1.000000 0.000000
vn 0.000000 -1.000000 0.000000
vn 0.000000 -1.000000 0.000000
vn 0.000000 -1.000000 0.000000
vn 0.000000 -1.000000 0.000000
vn 0.000000 -1.000000 0.000000
vn 0.000000 -1.000000 0.000000
vn 0.000000 -1.000000 0.000000
vn 0.000000 -1.000000 0.000000
vn 0.000000 -1.000000 0.000000
vn 0.000000 -1.000000 0.000000
vn 0.000000 -1.000000 0.000000
vn 1.000000 0.000000 0.000000
vn 1.000000 0.000000 0.000000
vn 1.000000 0.000000 0.000000
vn 1.000000 0.000000 0.000000
vn 1.000000 0.000000 0.000000
vn 1.000000 0.000000 0.000000
vn 1.000000 0.000000 0.000000
vn 1.000000 0.000000 0.000000
vn 1.000000 0.000000 0.000000
vn 1.000000 0.000000 0.000000
vn 1.000000 0.000000 0.000000
vn 1.000000 0.000000 0.000000
vn -1.000000 0.000000 0.000000
vn -1.000000 0.000000 0.000000
vn -1.000000 0.000000 0.000000
vn -1.000000 0.000000 0.000000
vn -1.000000 0.000000 0.000000
vn -1.000000 0.000000 0.000000
vn -1.000000 0.000000 0.000000
vn -1.000000 0.000000 0.000000
vn -1.000000 0.000000 0.000000
vn -1.000000 0.000000 0.000000
vn -1.000000 0.000000 0.000000
vn -1.000000 0.000000 0.000000
vn 0.000000 0.000000 1.000000
vn 0.000000 0.000000 1.000000
vn 0.000000 0.000000 1.000000
vn 0.000000 0.000000 1.000000
vn 1.000000 0.000000 0.000000
vn 1.000000 0.000000 0.000000
vn 1.000000 0.000000 0.000000
vn 1.000000 0.000000 0.000000
vn -1.000000 0.000000 0.000000
vn -1.000000 0.000000 0.000000
vn 1.000000 0.000000 0.000000
vn 1.000000 0.000000 0.000000
vn -1.000000 0.000000 0.000000
vn 1.000000 0.000000 0.000000
vn 1.000000 0.000000 0.000000
vn 0.000000 0.000000 -1.000000
vn 0.000000 0.000000 -1.000000
vn 0.000000 0.000000 -1.000000
vn 0.000000 0.000000 -1.000000
vn -1.000000 0.000000 0.000000
vn 0.000000 -1.000000 0.000000
vn 0.000000 -1.000000 0.000000
vn 0.000000 -1.000000 0.000000
vn 0.000000 -1.000000 0.000000
vn 1.000000 0.000000 0.000000
vn 1.000000 0.000000 0.000000
vn 0.000000 1.000000 0.000000
vn 0.000000 1.000000 0.000000
vn -1.000000 0.000000 0.000000
vn -1.000000 0.000000 0.000000
vn 0.000000 -1.000000 0.000000
vn 0.000000 -1.000000 0.000000
vn 0.000000 -1.000000 0.000000
vn 0.000000 -1.000000 0.000000
vn -1.000000 0.000000 0.000000
vn -1.000000 0.000000 0.000000
vn 0.000000 1.000000 0.000000
vn 0.000000 1.000000 0.000000
vn 1.000000 0.000000 0.000000
vn 1.000000 0.000000 0.000000
s 1
g pCube1
usemtl initialShadingGroup
f 1/1/1 2/2/2 7/7/3 6/6/4
f 2/2/2 3/3/5 8/8/6 7/7/3
f 3/3/5 4/4/7 9/9/8 8/8/6
f 4/4/7 5/5/9 10/10/10 9/9/8
s 2
f 6/6/11 7/7/12 12/12/13 11/11/14
f 7/7/12 8/8/15 13/13/16 12/12/13
f 8/8/15 9/9/17 14/14/18 13/13/16
f 9/9/17 10/10/19 15/15/20 14/14/18
s 3
f 61/86/21 62/87/22 63/88/23 64/89/24
s 2
f 12/12/13 13/13/16 18/18/25 17/17/26
f 13/13/16 14/14/18 19/19/27 18/18/25
f 14/14/18 15/15/20 20/20/28 19/19/27
s 3
f 64/89/24 63/88/23 65/90/29 66/91/30
s 2
f 17/17/26 18/18/25 23/23/31 22/22/32
f 18/18/25 19/19/27 24/24/33 23/23/31
f 19/19/27 20/20/28 25/25/34 24/24/33
s 3
f 66/91/30 65/90/29 67/92/35 68/93/36
s 2
f 22/22/32 23/23/31 28/28/37 27/27/38
f 23/23/31 24/24/33 29/29/39 28/28/37
f 24/24/33 25/25/34 30/30/40 29/29/39
f 26/26/41 27/27/38 32/32/42 31/31/43
f 27/27/38 28/28/37 33/33/44 32/32/42
f 28/28/37 29/29/39 34/34/45 33/33/44
f 29/29/39 30/30/40 35/35/46 34/34/45
s 4
f 31/31/47 32/32/48 37/37/49 36/36/50
f 32/32/48 33/33/51 38/38/52 37/37/49
f 33/33/51 34/34/53 39/39/54 38/38/52
f 34/34/53 35/35/55 40/40/56 39/39/54
s 5
f 36/36/57 37/37/58 42/42/59 41/41/60
f 37/37/58 38/38/61 43/43/62 42/42/59
f 38/38/61 39/39/63 44/44/64 43/43/62
f 39/39/63 40/40/65 45/45/66 44/44/64
f 41/41/60 42/42/59 47/47/67 46/46/68
f 42/42/59 43/43/62 48/48/69 47/47/67
f 43/43/62 44/44/64 49/49/70 48/48/69
f 44/44/64 45/45/66 50/50/71 49/49/70
f 46/46/68 47/47/67 52/52/72 51/51/73
f 47/47/67 48/48/69 53/53/74 52/52/72
f 48/48/69 49/49/70 54/54/75 53/53/74
f 49/49/70 50/50/71 55/55/76 54/54/75
f 51/51/73 52/52/72 57/57/77 56/56/78
f 52/52/72 53/53/74 58/58/79 57/57/77
f 53/53/74 54/54/75 59/59/80 58/58/79
f 54/54/75 55/55/76 60/60/81 59/59/80
f 56/56/78 57/57/77 2/62/82 1/61/83
f 57/57/77 58/58/79 3/63/84 2/62/82
f 58/58/79 59/59/80 4/64/85 3/63/84
f 59/59/80 60/60/81 5/65/86 4/64/85
s 6
f 45/67/87 40/66/88 35/71/89 30/72/90
f 50/68/91 45/67/87 30/72/90 25/73/92
f 55/69/93 50/68/91 25/73/92 20/74/94
f 60/70/95 55/69/93 20/74/94 15/75/96
f 5/5/97 60/70/95 15/75/96 10/10/98
s 7
f 36/76/99 41/77/100 26/82/101 31/81/102
f 41/77/100 46/78/103 21/83/104 26/82/101
f 46/78/103 51/79/105 16/84/106 21/83/104
f 51/79/105 56/80/107 11/85/108 16/84/106
f 56/80/107 1/1/109 6/6/110 11/85/108
s off
f 69/94/111 70/95/112 71/96/113 72/97/114
s 8
f 12/12/115 17/17/116 63/88/117 62/87/118
s 7
f 16/16/106 11/11/108 61/86/119 64/89/120
s 8
f 17/17/116 22/22/121 65/90/122 63/88/117
s 7
f 21/21/104 16/16/106 64/89/120 66/91/123
s 8
f 22/22/121 27/27/124 67/92/125 65/90/122
s off
f 74/98/126 73/99/127 75/100/128 76/101/129
s 7
f 26/26/101 21/21/104 66/91/123 68/93/130
s off
f 11/11/131 12/12/132 70/95/133 69/94/134
s 8
f 12/12/115 62/87/118 71/96/135 70/95/136
s 3
f 62/87/22 61/86/21 72/97/137 71/96/138
s 7
f 61/86/119 11/11/108 69/94/139 72/97/140
s off
f 27/27/141 26/26/142 73/99/143 74/98/144
s 7
f 26/26/101 68/93/130 75/100/145 73/99/146
s 3
f 68/93/36 67/92/35 76/101/147 75/100/148
s 8
f 67/92/125 27/27/124 74/98/149 76/101/150
