# This file uses centimeters as units for non-parametric coordinates.

mtllib Chair.mtl
g default
v -0.117393 -0.010353 0.117393
v -0.070436 -0.010353 0.117393
v -0.023479 -0.010353 0.117393
v 0.023479 -0.010353 0.117393
v 0.070436 -0.010353 0.117393
v 0.117393 -0.010353 0.117393
v -0.117393 0.010353 0.117393
v -0.070436 0.010353 0.117393
v -0.023479 0.010353 0.117393
v 0.023479 0.010353 0.117393
v 0.070436 0.010353 0.117393
v 0.117393 0.010353 0.117393
v -0.117393 0.010353 0.039131
v -0.070436 0.010353 0.039131
v -0.023479 0.010353 0.039131
v 0.023479 0.010353 0.039131
v 0.070436 0.010353 0.039131
v 0.117393 0.010353 0.039131
v -0.117393 0.010353 -0.098838
v -0.070436 0.010353 -0.098838
v -0.023479 0.010353 -0.098838
v 0.023479 0.010353 -0.098838
v 0.070436 0.010353 -0.098838
v 0.117393 0.010353 -0.098838
v -0.117393 0.010353 -0.117393
v -0.070436 0.010353 -0.117393
v -0.023479 0.010353 -0.117393
v 0.023479 0.010353 -0.117393
v 0.070436 0.010353 -0.117393
v 0.117393 0.010353 -0.117393
v -0.117393 -0.010353 -0.117393
v -0.070436 -0.010353 -0.117393
v -0.023479 -0.010353 -0.117393
v 0.023479 -0.010353 -0.117393
v 0.070436 -0.010353 -0.117393
v 0.117393 -0.010353 -0.117393
v -0.117393 -0.010353 -0.039131
v -0.070436 -0.010353 -0.039131
v -0.023479 -0.010353 -0.022475
v 0.023479 -0.010353 -0.022475
v 0.070436 -0.010353 -0.039131
v 0.117393 -0.010353 -0.039131
v -0.117393 -0.010353 0.039131
v -0.070436 -0.010353 0.039131
v -0.023479 -0.010353 0.022475
v 0.023479 -0.010353 0.022475
v 0.070436 -0.010353 0.039131
v 0.117393 -0.010353 0.039131
v -0.023479 -0.210727 -0.022475
v 0.023479 -0.210727 -0.022475
v 0.023479 -0.210727 0.022475
v -0.023479 -0.210727 0.022475
v -0.117393 0.248698 -0.098838
v -0.070436 0.299975 -0.098838
v -0.070436 0.299975 -0.117393
v -0.117393 0.248698 -0.117393
v -0.023479 0.299975 -0.098838
v -0.023479 0.299975 -0.117393
v 0.023479 0.299975 -0.098838
v 0.023479 0.299975 -0.117393
v 0.070436 0.299975 -0.098838
v 0.070436 0.299975 -0.117393
v 0.117393 0.248698 -0.098838
v 0.117393 0.248698 -0.117393
vt 0.375000 0.000000
vt 0.425000 0.000000
vt 0.475000 0.000000
vt 0.525000 0.000000
vt 0.575000 0.000000
vt 0.625000 0.000000
vt 0.375000 0.250000
vt 0.425000 0.250000
vt 0.475000 0.250000
vt 0.525000 0.250000
vt 0.575000 0.250000
vt 0.625000 0.250000
vt 0.375000 0.333333
vt 0.425000 0.333333
vt 0.475000 0.333333
vt 0.525000 0.333333
vt 0.575000 0.333333
vt 0.625000 0.333333
vt 0.375000 0.416667
vt 0.425000 0.416667
vt 0.475000 0.416667
vt 0.525000 0.416667
vt 0.575000 0.416667
vt 0.625000 0.416667
vt 0.375000 0.500000
vt 0.425000 0.500000
vt 0.475000 0.500000
vt 0.525000 0.500000
vt 0.575000 0.500000
vt 0.625000 0.500000
vt 0.375000 0.750000
vt 0.425000 0.750000
vt 0.475000 0.750000
vt 0.525000 0.750000
vt 0.575000 0.750000
vt 0.625000 0.750000
vt 0.375000 0.833333
vt 0.425000 0.833333
vt 0.475000 0.833333
vt 0.525000 0.833333
vt 0.575000 0.833333
vt 0.625000 0.833333
vt 0.375000 0.916667
vt 0.425000 0.916667
vt 0.475000 0.916667
vt 0.525000 0.916667
vt 0.575000 0.916667
vt 0.625000 0.916667
vt 0.375000 1.000000
vt 0.425000 1.000000
vt 0.475000 1.000000
vt 0.525000 1.000000
vt 0.575000 1.000000
vt 0.625000 1.000000
vt 0.875000 0.000000
vt 0.791667 0.000000
vt 0.708333 0.000000
vt 0.875000 0.250000
vt 0.791667 0.250000
vt 0.708333 0.250000
vt 0.125000 0.000000
vt 0.208333 0.000000
vt 0.291667 0.000000
vt 0.125000 0.250000
vt 0.208333 0.250000
vt 0.291667 0.250000
vt 0.475000 0.833333
vt 0.525000 0.833333
vt 0.525000 0.916667
vt 0.475000 0.916667
vt 0.375000 0.416667
vt 0.425000 0.416667
vt 0.425000 0.500000
vt 0.375000 0.500000
vt 0.475000 0.416667
vt 0.475000 0.500000
vt 0.525000 0.416667
vt 0.525000 0.500000
vt 0.575000 0.416667
vt 0.575000 0.500000
vt 0.625000 0.416667
vt 0.625000 0.500000
vn 0.000000 0.000000 1.000000
vn 0.000000 0.000000 1.000000
vn 0.000000 0.000000 1.000000
vn 0.000000 0.000000 1.000000
vn 0.000000 0.000000 1.000000
vn 0.000000 0.000000 1.000000
vn 0.000000 0.000000 1.000000
vn 0.000000 0.000000 1.000000
vn 0.000000 0.000000 1.000000
vn 0.000000 0.000000 1.000000
vn 0.000000 0.000000 1.000000
vn 0.000000 0.000000 1.000000
vn 0.000000 1.000000 0.000000
vn 0.000000 1.000000 0.000000
vn 0.000000 1.000000 0.000000
vn 0.000000 1.000000 0.000000
vn 0.000000 1.000000 0.000000
vn 0.000000 1.000000 0.000000
vn 0.000000 1.000000 0.000000
vn 0.000000 1.000000 0.000000
vn 0.000000 1.000000 0.000000
vn 0.000000 1.000000 0.000000
vn 0.000000 1.000000 0.000000
vn 0.000000 1.000000 0.000000
vn 0.000000 1.000000 0.000000
vn 0.000000 1.000000 0.000000
vn 0.000000 1.000000 0.000000
vn 0.000000 1.000000 0.000000
vn 0.000000 1.000000 0.000000
vn 0.000000 1.000000 0.000000
vn -0.737486 0.675362 0.000000
vn -0.479216 0.877697 0.000000
vn -0.479216 0.877697 0.000000
vn -0.737486 0.675362 0.000000
vn 0.000000 1.000000 0.000000
vn 0.000000 1.000000 0.000000
vn 0.000000 1.000000 0.000000
vn 0.000000 1.000000 0.000000
vn 0.479216 0.877697 0.000000
vn 0.479216 0.877697 0.000000
vn 0.737486 0.675362 0.000000
vn 0.737486 0.675362 0.000000
vn 0.000000 0.000000 -1.000000
vn 0.000000 0.000000 -1.000000
vn 0.000000 0.000000 -1.000000
vn 0.000000 0.000000 -1.000000
vn 0.000000 0.000000 -1.000000
vn 0.000000 0.000000 -1.000000
vn 0.000000 0.000000 -1.000000
vn 0.000000 0.000000 -1.000000
vn -0.000000 0.000000 -1.000000
vn 0.000000 0.000000 -1.000000
vn -0.000000 0.000000 -1.000000
vn 0.000000 0.000000 -1.000000
vn 0.000000 -1.000000 0.000000
vn 0.000000 -1.000000 0.000000
vn 0.000000 -1.000000 0.000000
vn 0.000000 -1.000000 0.000000
vn 0.000000 -1.000000 0.000000
vn 0.000000 -1.000000 0.000000
vn 0.000000 -1.000000 0.000000
vn 0.000000 -1.000000 0.000000
vn 0.000000 -1.000000 0.000000
vn 0.000000 -1.000000 0.000000
vn 0.000000 -1.000000 0.000000
vn 0.000000 -1.000000 0.000000
vn 0.000000 -1.000000 0.000000
vn 0.000000 -1.000000 0.000000
vn 0.000000 -1.000000 0.000000
vn 0.000000 -1.000000 0.000000
vn 0.000000 -1.000000 0.000000
vn 0.000000 -1.000000 0.000000
vn 0.000000 -1.000000 0.000000
vn 0.000000 -1.000000 0.000000
vn 0.000000 -1.000000 0.000000
vn 0.000000 -1.000000 0.000000
vn 0.000000 -1.000000 0.000000
vn 0.000000 -1.000000 0.000000
vn 0.000000 -1.000000 0.000000
vn 0.000000 -1.000000 0.000000
vn 0.000000 -1.000000 0.000000
vn 0.000000 -1.000000 0.000000
vn 1.000000 0.000000 0.000000
vn 1.000000 0.000000 0.000000
vn 1.000000 0.000000 0.000000
vn 1.000000 0.000000 0.000000
vn 1.000000 0.000000 0.000000
vn 1.000000 0.000000 0.000000
vn 1.000000 0.000000 0.000000
vn 1.000000 0.000000 0.000000
vn -1.000000 0.000000 0.000000
vn -1.000000 -0.000000 0.000000
vn -1.000000 -0.000000 0.000000
vn -1.000000 0.000000 0.000000
vn -1.000000 -0.000000 0.000000
vn -1.000000 -0.000000 0.000000
vn -1.000000 -0.000000 0.000000
vn -1.000000 -0.000000 0.000000
vn 0.000000 0.000000 -1.000000
vn 0.000000 0.000000 -1.000000
vn 0.000000 0.000000 -1.000000
vn 0.000000 0.000000 -1.000000
vn 1.000000 0.000000 0.000000
vn 1.000000 0.000000 0.000000
vn 1.000000 0.000000 0.000000
vn 1.000000 0.000000 0.000000
vn 0.000000 0.000000 1.000000
vn 0.000000 0.000000 1.000000
vn 0.000000 0.000000 1.000000
vn 0.000000 0.000000 1.000000
vn -1.000000 0.000000 0.000000
vn -1.000000 0.000000 0.000000
vn -1.000000 0.000000 0.000000
vn -1.000000 0.000000 0.000000
vn 0.000000 0.000000 1.000000
vn 0.000000 0.000000 1.000000
vn 0.000000 0.000000 1.000000
vn 0.000000 0.000000 1.000000
vn 0.000000 0.000000 -1.000000
vn 0.000000 0.000000 -1.000000
vn -1.000000 0.000000 0.000000
vn -1.000000 0.000000 0.000000
vn 0.000000 0.000000 1.000000
vn 0.000000 0.000000 1.000000
vn 0.000000 0.000000 -1.000000
vn 0.000000 0.000000 1.000000
vn 0.000000 0.000000 1.000000
vn 0.000000 0.000000 -1.000000
vn 0.000000 0.000000 1.000000
vn 0.000000 0.000000 1.000000
vn -0.000000 0.000000 -1.000000
vn 0.000000 0.000000 1.000000
vn 0.000000 0.000000 1.000000
vn 1.000000 0.000000 0.000000
vn 1.000000 0.000000 0.000000
vn -0.000000 0.000000 -1.000000
s 1
g pCube1
usemtl initialShadingGroup
f 1/1/1 2/2/2 8/8/3 7/7/4
f 2/2/2 3/3/5 9/9/6 8/8/3
f 3/3/5 4/4/7 10/10/8 9/9/6
f 4/4/7 5/5/9 11/11/10 10/10/8
f 5/5/9 6/6/11 12/12/12 11/11/10
s 2
f 7/7/13 8/8/14 14/14/15 13/13/16
f 8/8/14 9/9/17 15/15/18 14/14/15
f 9/9/17 10/10/19 16/16/20 15/15/18
f 10/10/19 11/11/21 17/17/22 16/16/20
f 11/11/21 12/12/23 18/18/24 17/17/22
f 13/13/16 14/14/15 20/20/25 19/19/26
f 14/14/15 15/15/18 21/21/27 20/20/25
f 15/15/18 16/16/20 22/22/28 21/21/27
f 16/16/20 17/17/22 23/23/29 22/22/28
f 17/17/22 18/18/24 24/24/30 23/23/29
s 3
f 53/71/31 54/72/32 55/73/33 56/74/34
f 54/72/32 57/75/35 58/76/36 55/73/33
f 57/75/35 59/77/37 60/78/38 58/76/36
f 59/77/37 61/79/39 62/80/40 60/78/38
f 61/79/39 63/81/41 64/82/42 62/80/40
s 4
f 25/25/43 26/26/44 32/32/45 31/31/46
f 26/26/44 27/27/47 33/33/48 32/32/45
f 27/27/47 28/28/49 34/34/50 33/33/48
f 28/28/49 29/29/51 35/35/52 34/34/50
f 29/29/51 30/30/53 36/36/54 35/35/52
s 5
f 31/31/55 32/32/56 38/38/57 37/37/58
f 32/32/56 33/33/59 39/39/60 38/38/57
f 33/33/59 34/34/61 40/40/62 39/39/60
f 34/34/61 35/35/63 41/41/64 40/40/62
f 35/35/63 36/36/65 42/42/66 41/41/64
f 37/37/58 38/38/57 44/44/67 43/43/68
f 38/38/57 39/39/60 45/45/69 44/44/67
s off
f 49/67/70 50/68/71 51/69/72 52/70/73
s 5
f 40/40/62 41/41/64 47/47/74 46/46/75
f 41/41/64 42/42/66 48/48/76 47/47/74
f 43/43/68 44/44/67 2/50/77 1/49/78
f 44/44/67 45/45/69 3/51/79 2/50/77
f 45/45/69 46/46/75 4/52/80 3/51/79
f 46/46/75 47/47/74 5/53/81 4/52/80
f 47/47/74 48/48/76 6/54/82 5/53/81
s 6
f 42/56/83 36/55/84 30/58/85 24/59/86
f 48/57/87 42/56/83 24/59/86 18/60/88
f 6/6/89 48/57/87 18/60/88 12/12/90
s 7
f 31/61/91 37/62/92 19/65/93 25/64/94
f 37/62/92 43/63/95 13/66/96 19/65/93
f 43/63/95 1/1/97 7/7/98 13/66/96
s off
f 39/39/99 40/40/100 50/68/101 49/67/102
f 40/40/103 46/46/104 51/69/105 50/68/106
f 46/46/107 45/45/108 52/70/109 51/69/110
f 45/45/111 39/39/112 49/67/113 52/70/114
s 8
f 19/19/115 20/20/116 54/72/117 53/71/118
s 4
f 26/26/44 25/25/43 56/74/119 55/73/120
s 7
f 25/25/94 19/19/93 53/71/121 56/74/122
s 8
f 20/20/116 21/21/123 57/75/124 54/72/117
s 4
f 27/27/47 26/26/44 55/73/120 58/76/125
s 8
f 21/21/123 22/22/126 59/77/127 57/75/124
s 4
f 28/28/49 27/27/47 58/76/125 60/78/128
s 8
f 22/22/126 23/23/129 61/79/130 59/77/127
s 4
f 29/29/51 28/28/49 60/78/128 62/80/131
s 8
f 23/23/129 24/24/132 63/81/133 61/79/130
s 6
f 24/24/86 30/30/85 64/82/134 63/81/135
s 4
f 30/30/53 29/29/51 62/80/131 64/82/136
